<svg width="44" height="28" viewBox="0 0 44 28" fill="none" xmlns="http://www.w3.org/2000/svg">
<path id="&#226;&#128;&#156;" d="M33.5 27.872C30.4627 27.872 28.073 26.867 26.331 24.857C24.6337 22.8023 23.785 20.2787 23.785 17.286C23.785 13.802 24.5667 10.8987 26.13 8.576C27.6933 6.20867 29.5023 4.33267 31.557 2.948C33.6117 1.51867 35.3537 0.536004 36.783 0L37.654 1.34001C36.2247 1.83134 34.7507 2.613 33.232 3.685C31.7133 4.757 30.4403 5.896 29.413 7.102C28.3857 8.308 27.872 9.35767 27.872 10.251C27.872 10.787 28.006 11.122 28.274 11.256C28.5867 11.39 28.877 11.457 29.145 11.457C29.6363 11.457 30.3287 11.2337 31.222 10.787C32.16 10.3403 33.5223 10.117 35.309 10.117C37.319 10.117 39.195 10.7423 40.937 11.993C42.7237 13.199 43.617 15.41 43.617 18.626C43.617 21.306 42.679 23.517 40.803 25.259C38.9717 27.001 36.5373 27.872 33.5 27.872ZM9.715 27.872C6.67767 27.872 4.288 26.867 2.546 24.857C0.848667 22.8023 0 20.2787 0 17.286C0 13.802 0.781667 10.8987 2.345 8.576C3.90833 6.20867 5.71733 4.33267 7.772 2.948C9.82667 1.51867 11.5687 0.536004 12.998 0L13.869 1.34001C12.4397 1.83134 10.9657 2.613 9.447 3.685C7.92833 4.757 6.65533 5.896 5.628 7.102C4.60067 8.308 4.087 9.35767 4.087 10.251C4.087 10.787 4.221 11.122 4.489 11.256C4.80167 11.39 5.092 11.457 5.36 11.457C5.85133 11.457 6.54367 11.2337 7.437 10.787C8.375 10.3403 9.73733 10.117 11.524 10.117C13.534 10.117 15.41 10.7423 17.152 11.993C18.9387 13.199 19.832 15.41 19.832 18.626C19.832 21.306 18.894 23.517 17.018 25.259C15.1867 27.001 12.7523 27.872 9.715 27.872Z" fill="#3E1D0C"/>
</svg>
